<svg xmlns="http://www.w3.org/2000/svg" width="264" height="57" viewBox="0 0 264 57" fill="none"><path d="M78.2936 30.8725L75.6697 21.2118L71.7875 30.1569C71.7069 30.419 71.5444 30.6484 71.3238 30.8113C71.1032 30.9742 70.8362 31.0622 70.562 31.0622C70.2878 31.0622 70.0208 30.9742 69.8002 30.8113C69.5797 30.6484 69.4171 30.419 69.3365 30.1569L65.4722 21.2118L62.8483 30.8487H60.463L63.9873 17.9558C64.0246 17.6712 64.1684 17.4114 64.3898 17.2288C64.6111 17.0461 64.8936 16.9543 65.18 16.9718C65.4367 16.9742 65.6869 17.0525 65.8992 17.1968C66.1114 17.3411 66.2762 17.545 66.3727 17.7829L70.5948 27.4734L74.8169 17.7829C74.9025 17.546 75.0588 17.3412 75.2646 17.1961C75.4705 17.051 75.716 16.9728 75.9678 16.9718C76.2466 16.9676 76.5173 17.0653 76.7292 17.2464C76.9411 17.4276 77.0796 17.6798 77.1188 17.9558L80.6253 30.8487L78.2936 30.8725Z" fill="#08202C"></path><path d="M87.7575 30.8725C83.929 30.8725 81.1023 27.8551 81.1023 23.8775C81.1023 19.8999 83.929 17.1686 87.7575 17.1686H91.097C95.0567 17.1686 97.8058 19.8999 97.8058 23.8775C97.8058 27.8551 94.9971 30.8725 91.097 30.8725H87.7575ZM91.097 28.4872C93.6255 28.4872 95.4145 26.5789 95.4145 23.9967C95.4452 23.4164 95.3554 22.836 95.1507 22.2921C94.9461 21.7482 94.6311 21.2525 94.2255 20.8363C93.82 20.4201 93.3326 20.0924 92.7942 19.8737C92.2558 19.6551 91.6779 19.5503 91.097 19.5659H87.7575C85.3065 19.5659 83.4996 21.3967 83.4996 23.9967C83.4996 26.5968 85.2886 28.4872 87.7575 28.4872H91.097Z" fill="#08202C"></path><path d="M99.7499 30.8726V17.1568H107.687C111.551 17.1568 114.366 19.888 114.366 23.8656C114.366 27.8432 111.551 30.8607 107.687 30.8607L99.7499 30.8726ZM107.687 28.4873C110.156 28.4873 111.969 26.579 111.969 23.9968C111.998 23.4198 111.909 22.8429 111.706 22.3018C111.503 21.7608 111.192 21.2672 110.79 20.8517C110.389 20.4362 109.906 20.1077 109.372 19.8865C108.838 19.6654 108.265 19.5563 107.687 19.566H102.129V28.5111L107.687 28.4873Z" fill="#08202C"></path><path d="M116.328 30.8726V17.1568H128.559V19.5422H118.702V28.4873H128.601V30.8726H116.328ZM120.455 24.9092V22.8936H128.052V24.9092H120.455Z" fill="#08202C"></path><path d="M143.366 30.8725L139.896 27.0619H134.767V24.9508H140.48C142.191 24.9508 143.098 23.9728 143.098 22.2017C143.098 20.4306 142.12 19.5599 140.48 19.5599H133.014V30.8904H130.628V17.1746H140.474C143.605 17.1746 145.447 19.1127 145.447 22.1659C145.447 24.432 144.392 26.0362 142.621 26.71L146.753 30.8844L143.366 30.8725Z" fill="#08202C"></path><path d="M150.23 20.8421V30.8726H147.946V18.4269C147.946 17.5444 148.417 16.9957 149.175 16.9957C149.369 17.0001 149.56 17.0461 149.734 17.1304C149.909 17.2147 150.064 17.3356 150.188 17.4847L159.861 27.0858V17.0375H162.145V29.5904C162.145 30.4969 161.65 31.0276 160.952 31.0276C160.744 31.0215 160.539 30.9729 160.351 30.8847C160.162 30.7965 159.993 30.6706 159.855 30.5148L150.23 20.8421Z" fill="#08202C"></path><path d="M184.299 30.8725L182.271 27.4257H175.759L176.887 25.4816H181.061L178.008 20.3531L171.818 30.8725H169.08L176.964 17.753C177.07 17.525 177.238 17.3314 177.449 17.1943C177.66 17.0573 177.905 16.9822 178.157 16.9778C178.402 16.9872 178.639 17.0647 178.843 17.2017C179.046 17.3386 179.207 17.5295 179.308 17.753L187.209 30.8725H184.299Z" fill="#08202C"></path><path d="M205.72 30.8725L203.096 21.2118L199.214 30.1569C199.133 30.419 198.97 30.6484 198.75 30.8113C198.529 30.9742 198.262 31.0622 197.988 31.0622C197.714 31.0622 197.447 30.9742 197.226 30.8113C197.006 30.6484 196.843 30.419 196.763 30.1569L192.898 21.2118L190.274 30.8487H187.919L191.443 17.9558C191.48 17.6712 191.624 17.4114 191.846 17.2288C192.067 17.0461 192.349 16.9543 192.636 16.9718C192.893 16.9742 193.143 17.0525 193.355 17.1968C193.567 17.3411 193.732 17.545 193.829 17.7829L198.051 27.4734L202.273 17.7829C202.358 17.546 202.515 17.3412 202.721 17.1961C202.926 17.051 203.172 16.9728 203.424 16.9718C203.702 16.9676 203.973 17.0653 204.185 17.2464C204.397 17.4276 204.535 17.6798 204.575 17.9558L208.081 30.8487L205.72 30.8725Z" fill="#08202C"></path><path d="M209.811 30.8726V17.1568H212.196V30.8726H209.811Z" fill="#08202C"></path><path d="M216.937 20.8421V30.8726H214.659V18.4269C214.659 17.5444 215.13 16.9957 215.881 16.9957C216.076 17.0001 216.268 17.0459 216.444 17.1302C216.62 17.2146 216.776 17.3354 216.901 17.4847L226.574 27.0858V17.0375H228.852V29.5904C228.852 30.4969 228.363 31.0276 227.659 31.0276C227.452 31.0207 227.248 30.9717 227.061 30.8835C226.873 30.7953 226.705 30.6699 226.568 30.5148L216.937 20.8421Z" fill="#08202C"></path><path d="M237.433 30.8725C233.605 30.8725 230.778 27.8551 230.778 23.8775C230.778 19.8999 233.605 17.1686 237.433 17.1686H240.773C244.732 17.1686 247.481 19.8999 247.481 23.8775C247.481 27.8551 244.673 30.8725 240.773 30.8725H237.433ZM240.773 28.4872C243.295 28.4872 245.09 26.5789 245.09 23.9967C245.121 23.4164 245.031 22.836 244.826 22.2921C244.622 21.7482 244.307 21.2525 243.901 20.8363C243.496 20.4201 243.008 20.0924 242.47 19.8737C241.931 19.6551 241.353 19.5503 240.773 19.5659H237.433C234.982 19.5659 233.175 21.3967 233.175 23.9967C233.175 26.5968 234.964 28.4872 237.433 28.4872H240.773Z" fill="#08202C"></path><path d="M249.425 30.8725V28.4872H259.7C260.983 28.4872 261.698 27.7656 261.698 26.6981C261.698 25.5055 260.983 24.9091 259.7 24.9091H253.403C250.821 24.9091 249.229 23.2692 249.229 21.0091C249.229 18.7489 250.72 17.1627 253.457 17.1627H263.296V19.548H253.457C253.014 19.548 252.589 19.7239 252.276 20.0371C251.963 20.3502 251.787 20.7749 251.787 21.2178C251.787 21.6606 251.963 22.0853 252.276 22.3985C252.589 22.7116 253.014 22.8875 253.457 22.8875H259.736C262.509 22.8875 264 24.1876 264 26.8472C264 29.1431 262.605 30.8606 259.736 30.8606L249.425 30.8725Z" fill="#08202C"></path><path d="M65.2575 40.253L64.9415 39.9787C64.6067 40.1606 64.2312 40.255 63.8502 40.253H62.735C62.4331 40.2534 62.1343 40.1923 61.8568 40.0735C61.5793 39.9547 61.3288 39.7807 61.1207 39.562C60.9126 39.3432 60.7512 39.0845 60.6463 38.8014C60.5414 38.5183 60.4953 38.2168 60.5107 37.9153C60.4955 37.6181 60.5425 37.321 60.6486 37.043C60.7547 36.7649 60.9176 36.5121 61.1269 36.3005C61.3362 36.089 61.5873 35.9234 61.8642 35.8143C62.1411 35.7053 62.4377 35.6551 62.735 35.6671H63.8502C64.1492 35.6526 64.448 35.7009 64.7274 35.8087C65.0067 35.9166 65.2604 36.0817 65.4721 36.2934C65.6838 36.5051 65.8489 36.7588 65.9568 37.0381C66.0646 37.3175 66.1129 37.6162 66.0984 37.9153C66.1102 38.5336 65.8814 39.1322 65.4603 39.5851L66.325 40.253H65.2575ZM62.9258 38.3626H63.9814L64.8341 39.0782C64.9839 38.9319 65.1019 38.7563 65.1809 38.5624C65.2599 38.3685 65.2982 38.1604 65.2933 37.9511C65.3041 37.7568 65.2745 37.5624 65.2063 37.3802C65.1382 37.1979 65.033 37.0317 64.8974 36.8922C64.7617 36.7527 64.5987 36.6428 64.4184 36.5694C64.2382 36.4961 64.0447 36.461 63.8502 36.4662H62.735C62.542 36.4635 62.3505 36.5005 62.1723 36.5749C61.9942 36.6493 61.8333 36.7596 61.6996 36.8989C61.566 37.0382 61.4624 37.2034 61.3953 37.3845C61.3282 37.5655 61.2991 37.7584 61.3098 37.9511C61.2992 38.1447 61.3283 38.3384 61.3952 38.5204C61.4621 38.7023 61.5654 38.8687 61.6988 39.0094C61.8322 39.1501 61.9929 39.2621 62.1711 39.3385C62.3492 39.4149 62.5411 39.4542 62.735 39.4539H63.8502C63.985 39.4515 64.1191 39.4335 64.2497 39.4002L62.9258 38.3626Z" fill="#116190"></path><path d="M70.8393 35.6671H71.6205V38.2254C71.6205 39.6447 70.9228 40.3126 69.1457 40.3126C67.3686 40.3126 66.6709 39.6447 66.6709 38.2254V35.6671H67.4998V38.2254C67.4998 39.1497 67.9053 39.5254 69.1695 39.5254C70.4338 39.5254 70.8393 39.1497 70.8393 38.2254V35.6671Z" fill="#116190"></path><path d="M76.7192 40.253L76.0453 39.102H73.8747L74.2563 38.452H75.6577L74.638 36.7167L72.5567 40.2351H71.6443L74.2802 35.846C74.3145 35.7715 74.369 35.708 74.4375 35.6626C74.506 35.6173 74.5857 35.5921 74.6678 35.5896C74.75 35.5914 74.8301 35.6164 74.8987 35.6618C74.9673 35.7071 75.0216 35.771 75.0554 35.846L77.6972 40.2351L76.7192 40.253Z" fill="#116190"></path><path d="M78.1862 40.253V35.6671H78.9853V39.4539H82.0863V40.253H78.1862Z" fill="#116190"></path><path d="M82.6826 40.253V35.6671H83.4817V40.253H82.6826Z" fill="#116190"></path><path d="M85.7896 40.253V36.4662H84.0482V35.6671H88.33V36.4662H86.5946V40.253H85.7896Z" fill="#116190"></path><path d="M90.9777 40.253V38.5057L88.5446 35.6612H89.624L91.413 37.7722L93.2021 35.6612H94.2278L91.7828 38.5057V40.2471L90.9777 40.253Z" fill="#116190"></path><path d="M97.9251 38.9768V38.2016H99.7678C99.8858 38.2121 100.005 38.197 100.116 38.1573C100.228 38.1176 100.33 38.0543 100.415 37.9716C100.5 37.8889 100.566 37.7889 100.609 37.6783C100.651 37.5677 100.67 37.4492 100.662 37.3309C100.671 37.2126 100.653 37.0938 100.611 36.983C100.569 36.8722 100.502 36.7721 100.417 36.6896C100.332 36.6072 100.229 36.5444 100.117 36.5058C100.005 36.4672 99.8858 36.4537 99.7678 36.4662H97.3407V40.253H96.5475V35.6671H99.7678C99.9901 35.6457 100.214 35.673 100.425 35.7473C100.636 35.8216 100.828 35.9411 100.987 36.0973C101.147 36.2535 101.27 36.4427 101.349 36.6517C101.428 36.8607 101.46 37.0844 101.444 37.3071C101.461 37.5312 101.429 37.7564 101.351 37.9671C101.272 38.1779 101.149 38.3692 100.99 38.5278C100.831 38.6865 100.639 38.8088 100.428 38.8863C100.217 38.9638 99.9919 38.9947 99.7678 38.9768H97.9251Z" fill="#116190"></path><path d="M106.268 40.253L105.075 38.9768H103.364V38.2731H105.272C105.394 38.2843 105.517 38.2677 105.632 38.2244C105.747 38.1812 105.85 38.1125 105.935 38.0236C106.019 37.9346 106.082 37.8277 106.119 37.7108C106.156 37.5939 106.166 37.4701 106.149 37.3488C106.163 37.23 106.15 37.1095 106.111 36.9963C106.072 36.8832 106.008 36.7803 105.924 36.6954C105.84 36.6105 105.737 36.5458 105.624 36.5061C105.511 36.4664 105.391 36.4528 105.272 36.4662H102.773V40.253H101.98V35.6671H105.272C105.496 35.6479 105.721 35.678 105.932 35.7552C106.143 35.8325 106.335 35.9549 106.493 36.1141C106.652 36.2732 106.774 36.4652 106.85 36.6764C106.927 36.8877 106.956 37.1131 106.936 37.3369C106.962 37.6577 106.884 37.9783 106.714 38.2519C106.545 38.5255 106.292 38.7377 105.994 38.8575L107.371 40.253H106.268Z" fill="#116190"></path><path d="M109.798 40.253C109.497 40.2525 109.198 40.1909 108.921 40.0718C108.644 39.9527 108.394 39.7786 108.186 39.5601C107.978 39.3416 107.816 39.0831 107.711 38.8004C107.606 38.5177 107.559 38.2166 107.574 37.9153C107.559 37.6181 107.606 37.321 107.712 37.043C107.818 36.7649 107.981 36.5121 108.19 36.3005C108.399 36.089 108.651 35.9234 108.927 35.8143C109.204 35.7053 109.501 35.6551 109.798 35.6671H110.913C111.212 35.6526 111.511 35.7009 111.791 35.8087C112.07 35.9166 112.324 36.0817 112.535 36.2934C112.747 36.5051 112.912 36.7588 113.02 37.0381C113.128 37.3175 113.176 37.6162 113.162 37.9153C113.176 38.2186 113.129 38.5217 113.022 38.8061C112.915 39.0904 112.752 39.3499 112.541 39.5688C112.331 39.7876 112.078 39.9612 111.798 40.0789C111.518 40.1965 111.217 40.2558 110.913 40.253H109.798ZM110.913 39.4539C111.109 39.4575 111.304 39.4206 111.485 39.3456C111.666 39.2707 111.829 39.1592 111.965 39.0182C112.101 38.8772 112.207 38.7096 112.275 38.526C112.343 38.3424 112.373 38.1467 112.363 37.9511C112.372 37.7565 112.342 37.562 112.273 37.3797C112.204 37.1974 112.099 37.0314 111.963 36.8919C111.826 36.7525 111.663 36.6427 111.482 36.5694C111.302 36.4962 111.108 36.461 110.913 36.4662H109.798C109.605 36.4635 109.414 36.5005 109.236 36.5749C109.057 36.6493 108.897 36.7596 108.763 36.8989C108.629 37.0382 108.526 37.2034 108.459 37.3845C108.391 37.5655 108.362 37.7584 108.373 37.9511C108.362 38.1447 108.391 38.3384 108.458 38.5204C108.525 38.7023 108.629 38.8687 108.762 39.0094C108.895 39.1501 109.056 39.2621 109.234 39.3385C109.412 39.4149 109.604 39.4542 109.798 39.4539H110.913Z" fill="#116190"></path><path d="M113.806 40.253V35.6672H116.459C116.757 35.6553 117.054 35.7054 117.332 35.8144C117.609 35.9233 117.861 36.0887 118.071 36.3001C118.282 36.5114 118.446 36.7641 118.553 37.0422C118.661 37.3202 118.709 37.6176 118.696 37.9154C118.71 38.2177 118.663 38.5198 118.557 38.8033C118.451 39.0868 118.289 39.3458 118.08 39.5645C117.87 39.7832 117.619 39.957 117.34 40.0754C117.062 40.1937 116.762 40.2542 116.459 40.253H113.806ZM116.459 39.4539C116.654 39.455 116.846 39.4164 117.025 39.3403C117.204 39.2642 117.365 39.1524 117.499 39.0116C117.634 38.8709 117.737 38.7042 117.805 38.5218C117.872 38.3394 117.901 38.1452 117.891 37.9512C117.901 37.7579 117.872 37.5645 117.805 37.3831C117.737 37.2016 117.633 37.0361 117.499 36.8967C117.364 36.7574 117.203 36.6472 117.024 36.5731C116.845 36.4991 116.653 36.4627 116.459 36.4663H114.599V39.448L116.459 39.4539Z" fill="#116190"></path><path d="M123.443 35.6671H124.224V38.2254C124.224 39.6447 123.526 40.3126 121.749 40.3126C119.972 40.3126 119.274 39.6447 119.274 38.2254V35.6671H120.103V38.2254C120.103 39.1497 120.514 39.5254 121.773 39.5254C123.031 39.5254 123.443 39.1497 123.443 38.2254V35.6671Z" fill="#116190"></path><path d="M127.038 40.253C126.737 40.2525 126.438 40.1909 126.161 40.0718C125.884 39.9527 125.634 39.7786 125.426 39.5601C125.218 39.3416 125.057 39.0832 124.952 38.8005C124.846 38.5177 124.8 38.2166 124.814 37.9153C124.799 37.6181 124.846 37.321 124.952 37.043C125.058 36.765 125.221 36.5121 125.43 36.3005C125.64 36.089 125.891 35.9234 126.168 35.8143C126.445 35.7053 126.741 35.6552 127.038 35.6671H129.525V36.4662H127.038C126.845 36.4635 126.654 36.5005 126.476 36.5749C126.298 36.6493 126.137 36.7596 126.003 36.8989C125.869 37.0382 125.766 37.2035 125.699 37.3845C125.632 37.5655 125.603 37.7584 125.613 37.9511C125.603 38.1447 125.632 38.3384 125.699 38.5204C125.765 38.7024 125.869 38.8688 126.002 39.0094C126.136 39.1501 126.296 39.2621 126.475 39.3385C126.653 39.4149 126.845 39.4542 127.038 39.4539H129.525V40.253H127.038Z" fill="#116190"></path><path d="M131.642 40.253V36.4662H129.901V35.6671H134.183V36.4662H132.441V40.253H131.642Z" fill="#116190"></path><path d="M134.707 40.2529V39.4538H138.142C138.227 39.4649 138.313 39.4577 138.394 39.4328C138.476 39.4078 138.551 39.3657 138.615 39.3091C138.679 39.2526 138.73 39.1831 138.765 39.1051C138.799 39.0272 138.817 38.9428 138.816 38.8575C138.816 38.4699 138.572 38.2612 138.142 38.2612H136.037C135.857 38.278 135.675 38.2566 135.504 38.1982C135.333 38.1399 135.176 38.0459 135.044 37.9226C134.911 37.7992 134.806 37.6492 134.736 37.4825C134.666 37.3158 134.632 37.1361 134.636 36.9552C134.631 36.7738 134.666 36.5936 134.737 36.4267C134.808 36.2599 134.914 36.1102 135.048 35.988C135.182 35.8659 135.341 35.774 135.514 35.7186C135.686 35.6632 135.869 35.6456 136.049 35.6671H139.335V36.4662H136.043C135.895 36.4662 135.752 36.5252 135.647 36.6304C135.542 36.7355 135.483 36.8781 135.483 37.0267C135.483 37.1754 135.542 37.318 135.647 37.4231C135.752 37.5282 135.895 37.5873 136.043 37.5873H138.142C139.073 37.5873 139.568 38.0226 139.568 38.9112C139.578 39.0975 139.548 39.2839 139.479 39.4574C139.41 39.6308 139.304 39.787 139.168 39.915C139.032 40.0429 138.87 40.1395 138.693 40.1979C138.516 40.2563 138.328 40.2751 138.142 40.2529H134.707Z" fill="#116190"></path><path d="M145.704 38.7204L144.994 40.0621C144.957 40.1388 144.898 40.2031 144.825 40.2475C144.752 40.2919 144.668 40.3145 144.583 40.3126C144.497 40.3149 144.412 40.2925 144.338 40.2482C144.264 40.2038 144.204 40.1393 144.165 40.0621L141.78 35.6671H142.74L144.589 39.1915L145.286 37.9451L144.094 35.6671H145.06L146.849 39.1915L148.715 35.6671H149.61L147.225 40.0621C147.186 40.1383 147.128 40.2023 147.055 40.2466C146.982 40.2909 146.898 40.3138 146.813 40.3126C146.728 40.3152 146.643 40.2929 146.57 40.2485C146.497 40.204 146.439 40.1393 146.402 40.0621L145.704 38.7204Z" fill="#116190"></path><path d="M150.141 40.253V35.6671H150.94V40.253H150.141Z" fill="#116190"></path><path d="M153.248 40.253V36.4662H151.506V35.6671H155.788V36.4662H154.047V40.253H153.248Z" fill="#116190"></path><path d="M156.313 40.2948V35.691H157.118V40.2948H156.313ZM160.004 40.2948V38.303H157.696V37.5874H160.004V35.691H160.803V40.2948H160.004Z" fill="#116190"></path><path d="M168.067 40.2529L167.751 39.9786C167.416 40.1599 167.04 40.2542 166.659 40.2529H165.574C165.272 40.2533 164.973 40.1923 164.695 40.0735C164.417 39.9548 164.166 39.7808 163.958 39.5622C163.749 39.3436 163.587 39.0849 163.482 38.8018C163.376 38.5187 163.329 38.2171 163.344 37.9153C163.328 37.6176 163.376 37.3199 163.482 37.0415C163.588 36.763 163.752 36.5098 163.962 36.2982C164.172 36.0866 164.424 35.9211 164.701 35.8124C164.979 35.7037 165.276 35.6542 165.574 35.6671H166.689C166.988 35.6525 167.287 35.7008 167.566 35.8087C167.845 35.9166 168.098 36.0818 168.309 36.2936C168.52 36.5054 168.685 36.7592 168.792 37.0385C168.899 37.3178 168.947 37.6165 168.931 37.9153C168.943 38.5335 168.714 39.1322 168.293 39.585L169.158 40.2529H168.067ZM165.729 38.3625H166.767L167.619 39.0782C167.768 38.931 167.885 38.7552 167.964 38.5615C168.043 38.3679 168.082 38.1602 168.079 37.9511C168.089 37.757 168.058 37.563 167.99 37.3811C167.921 37.1993 167.816 37.0335 167.681 36.8941C167.545 36.7548 167.382 36.6448 167.203 36.5712C167.023 36.4976 166.83 36.4618 166.635 36.4662H165.574C165.381 36.4625 165.189 36.4989 165.01 36.5731C164.832 36.6472 164.67 36.7574 164.537 36.8969C164.403 37.0364 164.299 37.202 164.232 37.3834C164.166 37.5648 164.137 37.7581 164.149 37.9511C164.137 38.1449 164.166 38.3389 164.232 38.5213C164.299 38.7036 164.402 38.8704 164.536 39.0113C164.669 39.1521 164.83 39.2641 165.009 39.3402C165.188 39.4163 165.38 39.455 165.574 39.4538H166.689C166.822 39.4515 166.954 39.4334 167.083 39.4002L165.729 38.3625Z" fill="#116190"></path><path d="M173.648 35.6671H174.43V38.2254C174.43 39.6447 173.726 40.3126 171.949 40.3126C170.172 40.3126 169.48 39.6447 169.48 38.2254V35.6671H170.303V38.2254C170.303 39.1497 170.714 39.5254 171.979 39.5254C173.243 39.5254 173.648 39.1497 173.648 38.2254V35.6671Z" fill="#116190"></path><path d="M179.54 40.253L178.849 39.102H176.684L177.059 38.452H178.467L177.447 36.7167L175.366 40.2351H174.448L177.083 35.846C177.118 35.7706 177.174 35.7065 177.243 35.6611C177.313 35.6157 177.394 35.5909 177.477 35.5896C177.559 35.5903 177.638 35.6149 177.706 35.6605C177.774 35.7061 177.827 35.7706 177.859 35.846L180.506 40.2351L179.54 40.253Z" fill="#116190"></path><path d="M180.989 40.253V35.6671H181.794V39.4539H184.878V40.253H180.989Z" fill="#116190"></path><path d="M185.492 40.253V35.6671H186.291V40.253H185.492Z" fill="#116190"></path><path d="M188.599 40.253V36.4662H186.857V35.6671H191.139V36.4662H189.428V40.253H188.599Z" fill="#116190"></path><path d="M193.787 40.253V38.5057L191.348 35.6612H192.409L194.198 37.7722L195.987 35.6612H197.007L194.586 38.5057V40.2471L193.787 40.253Z" fill="#116190"></path><path d="M199.351 40.2529V39.4538H202.792C202.876 39.464 202.961 39.4561 203.042 39.4308C203.123 39.4054 203.197 39.3631 203.26 39.3066C203.324 39.2502 203.374 39.181 203.408 39.1035C203.443 39.0261 203.46 38.9422 203.459 38.8575C203.459 38.4699 203.221 38.2612 202.792 38.2612H200.687C200.506 38.278 200.325 38.2566 200.153 38.1982C199.982 38.1399 199.825 38.0459 199.693 37.9226C199.56 37.7992 199.456 37.6493 199.385 37.4825C199.315 37.3158 199.281 37.1361 199.285 36.9552C199.279 36.7735 199.313 36.5929 199.384 36.4255C199.455 36.2581 199.561 36.1081 199.695 35.9857C199.829 35.8633 199.989 35.7714 200.162 35.7164C200.335 35.6614 200.518 35.6446 200.698 35.6671H203.99V36.4662H200.698C200.55 36.4662 200.407 36.5252 200.302 36.6304C200.197 36.7355 200.138 36.8781 200.138 37.0267C200.138 37.1754 200.197 37.318 200.302 37.4231C200.407 37.5282 200.55 37.5873 200.698 37.5873H202.798C203.722 37.5873 204.223 38.0226 204.223 38.9112C204.234 39.0975 204.204 39.2839 204.135 39.4574C204.066 39.6308 203.959 39.787 203.824 39.915C203.688 40.0429 203.525 40.1395 203.348 40.1979C203.171 40.2563 202.983 40.2751 202.798 40.2529H199.351Z" fill="#116190"></path><path d="M204.897 40.253V35.6671H208.994V36.4662H205.696V39.4479H209V40.247L204.897 40.253ZM206.28 38.2612V37.5873H208.821V38.2612H206.28Z" fill="#116190"></path><path d="M213.937 40.253L212.78 38.9768H211.063V38.2731H212.971C213.094 38.2855 213.217 38.2697 213.332 38.2269C213.448 38.1841 213.552 38.1154 213.636 38.0261C213.721 37.9369 213.784 37.8294 213.821 37.712C213.857 37.5946 213.867 37.4703 213.848 37.3488C213.862 37.23 213.849 37.1095 213.81 36.9963C213.771 36.8832 213.707 36.7803 213.623 36.6954C213.539 36.6105 213.436 36.5458 213.323 36.5061C213.21 36.4664 213.09 36.4528 212.971 36.4662H210.472V40.253H209.703V35.6671H212.995C213.219 35.6479 213.444 35.678 213.655 35.7552C213.866 35.8325 214.058 35.9549 214.216 36.1141C214.375 36.2732 214.497 36.4652 214.573 36.6764C214.649 36.8877 214.679 37.1131 214.659 37.3369C214.684 37.6577 214.607 37.9783 214.437 38.2519C214.268 38.5255 214.015 38.7377 213.717 38.8575L215.094 40.253H213.937Z" fill="#116190"></path><path d="M214.641 35.6671H215.619L217.7 39.1974L219.775 35.6671H220.694L218.052 40.0562C218.017 40.1303 217.962 40.1935 217.894 40.2387C217.826 40.2839 217.746 40.3095 217.664 40.3126C217.582 40.3102 217.503 40.2849 217.434 40.2396C217.366 40.1943 217.311 40.1308 217.277 40.0562L214.641 35.6671Z" fill="#116190"></path><path d="M221.224 40.253V35.6671H222.024V40.253H221.224Z" fill="#116190"></path><path d="M224.958 40.253C224.656 40.2534 224.357 40.1923 224.079 40.0735C223.802 39.9547 223.551 39.7807 223.343 39.562C223.135 39.3433 222.974 39.0845 222.869 38.8014C222.764 38.5183 222.718 38.2168 222.733 37.9153C222.718 37.6181 222.765 37.321 222.871 37.043C222.977 36.765 223.14 36.5121 223.349 36.3005C223.559 36.089 223.81 35.9234 224.087 35.8143C224.364 35.7053 224.66 35.6552 224.958 35.6671H227.444V36.4662H224.958C224.585 36.4996 224.239 36.6711 223.986 36.947C223.734 37.2229 223.594 37.5832 223.594 37.9571C223.594 38.331 223.734 38.6913 223.986 38.9672C224.239 39.2431 224.585 39.4146 224.958 39.4479H227.444V40.247L224.958 40.253Z" fill="#116190"></path><path d="M228.088 40.253V35.6671H232.179V36.4662H228.882V39.4479H232.185V40.247L228.088 40.253ZM229.466 38.2612V37.5873H232.012V38.2612H229.466Z" fill="#116190"></path><path fill-rule="evenodd" clip-rule="evenodd" d="M48.5898 14.0259V42.0778L24.2949 56.1037L19.4348 53.3009V53.295L24.2949 50.4922L43.7297 39.269V16.8287L24.2949 5.61156V5.6056L29.1491 2.8028L48.5898 14.0259Z" fill="#08202C"></path><path fill-rule="evenodd" clip-rule="evenodd" d="M4.86018 16.8228V39.269L24.2949 50.4862V50.4922L19.4347 53.295L0 42.0778V14.0259L24.2949 0L29.1491 2.8028L24.2949 5.6056L4.86018 16.8228Z" fill="#116190"></path><path fill-rule="evenodd" clip-rule="evenodd" d="M22.3449 26.5133V18.9994L24.2949 17.8723L26.2449 18.9994V26.5133L30.3299 24.1578V16.6379L24.2949 13.1553L18.2599 16.6379V24.1578L22.3449 26.5133Z" fill="#116190"></path><path fill-rule="evenodd" clip-rule="evenodd" d="M22.3449 30.1629V42.9485L18.2599 40.5929V27.8074L22.3449 30.1629Z" fill="#116190"></path><path fill-rule="evenodd" clip-rule="evenodd" d="M30.3299 27.8074V40.5929L26.245 42.9485V30.1629L30.3299 27.8074Z" fill="#116190"></path><path fill-rule="evenodd" clip-rule="evenodd" d="M36.5497 22.8458V37.0029L30.3299 40.5929V35.8759L32.4648 34.6414V25.2014L24.2949 29.9244L16.1191 25.2014V34.6414L18.26 35.8759V40.5929L12.0401 37.0029V22.8458L16.1251 20.4843L24.2949 25.2014L32.4648 20.4843V20.4903L36.5497 22.8458Z" fill="#08202C"></path></svg>